<svg xmlns="http://www.w3.org/2000/svg" xmlns:xlink="http://www.w3.org/1999/xlink" version="1.1" id="Layer_1" x="0" y="0" width="60" height="60" viewBox="0" enable-background="new 0 0 60 60" xml:space="preserve"><path fill="#FFFFFF" d="M30 10c-11.03 0-20 8.97-20 20s8.97 20 20 20c11.03 0 20-8.97 20-20S41.03 10 30 10zM30 47.22c-9.49 0-17.22-7.72-17.22-17.22S20.51 12.78 30 12.78c9.5 0 17.22 7.73 17.22 17.22S39.5 47.22 30 47.22z"/><path fill="#FFFFFF" d="M43.42 23.04H38.76v2.16h0.95l-6 12.87 -2.4-5.08 3.67-7.77h1.33v-2.18H23.69v2.18h1.33l3.67 7.77 -2.4 5.08 -6-12.86h0.95v-2.16h-4.66v2.16h1.08l7.55 16.19h2.13L30 35.76l2.66 5.63h2.13l7.55-16.19h1.08V23.04zM27.65 25.22h4.71L30 30.2 27.65 25.22z"/></svg>