<svg xmlns="http://www.w3.org/2000/svg" xmlns:xlink="http://www.w3.org/1999/xlink" version="1.1" id="Layer_1" x="0px" y="0px" width="168px" height="240px" viewBox="0 0 168 240" enable-background="new 0 0 168 240" xml:space="preserve">
  <path fill="#FFFFFF" d="M41.333 194.534H36.46l-4.957-14.744 -4.873 14.744h-4.873l-5.545-21.844h5.083l3.487 14.324L29.36 172.9h4.327l4.621 14.072 3.36-14.282h4.999L41.333 194.534z"/>
  <path fill="#FFFFFF" d="M50.82 169.666v-5.419h5.629v5.419H50.82zM50.988 194.534V172.69h5.335v21.844H50.988z"/>
  <path fill="#FFFFFF" d="M77.787 194.534l-6.134-9.536 -3.486 3.781v5.755h-5.251v-30.329h5.251v17.349l8.275-8.863h6.596l-7.813 8.443 8.653 13.4H77.787z"/>
  <path fill="#FFFFFF" d="M103.365 194.87c-2.269 0-3.528-1.428-3.696-3.066 -1.008 1.765-3.528 3.276-6.638 3.276 -5.208 0-7.896-3.276-7.896-6.847 0-4.159 3.234-6.554 7.393-6.848l6.428-0.462v-1.345c0-2.058-0.715-3.444-3.697-3.444 -2.437 0-3.864 1.093-3.99 3.108h-5.083c0.294-4.915 4.2-7.099 9.073-7.099 3.739 0 6.932 1.176 8.191 4.452 0.547 1.387 0.631 2.94 0.631 4.411v8.107c0 1.008 0.336 1.386 1.218 1.386 0.336 0 0.672-0.084 0.672-0.084v3.865C105.088 194.66 104.626 194.87 103.365 194.87zM98.955 184.83l-5.545 0.421c-1.597 0.126-3.151 1.092-3.151 2.856 0 1.68 1.471 2.73 3.109 2.73 3.276 0 5.587-1.765 5.587-4.999V184.83z"/>
  <path fill="#FFFFFF" d="M125.625 192.56c-1.765 1.765-4.495 2.521-7.478 2.521 -2.772 0-5.251-0.798-7.058-2.521 -1.26-1.218-2.31-3.024-2.31-5.083h4.914c0 0.967 0.505 2.017 1.177 2.562 0.84 0.673 1.807 0.967 3.318 0.967 1.765 0 4.453-0.378 4.453-2.772 0-1.261-0.841-2.101-2.185-2.311 -1.933-0.294-4.117-0.42-6.049-0.841 -2.982-0.63-4.999-3.066-4.999-5.839 0-2.227 0.924-3.78 2.227-4.915 1.596-1.386 3.906-2.184 6.637-2.184 2.604 0 5.251 0.84 6.848 2.562 1.176 1.26 1.932 2.898 1.932 4.494h-4.998c0-0.84-0.379-1.512-0.883-2.058 -0.63-0.631-1.764-1.009-2.856-1.009 -0.756 0-1.47 0-2.269 0.336 -0.924 0.378-1.68 1.177-1.68 2.311 0 1.555 1.344 2.017 2.521 2.185 1.974 0.252 2.521 0.294 4.662 0.63 3.445 0.546 5.966 2.73 5.966 6.175C127.516 189.871 126.759 191.426 125.625 192.56z"/>
  <path fill="#FFFFFF" d="M148.851 194.87c-2.269 0-3.528-1.428-3.696-3.066 -1.008 1.765-3.528 3.276-6.638 3.276 -5.208 0-7.896-3.276-7.896-6.847 0-4.159 3.234-6.554 7.393-6.848l6.428-0.462v-1.345c0-2.058-0.715-3.444-3.697-3.444 -2.437 0-3.864 1.093-3.99 3.108h-5.083c0.294-4.915 4.201-7.099 9.073-7.099 3.739 0 6.932 1.176 8.191 4.452 0.547 1.387 0.631 2.94 0.631 4.411v8.107c0 1.008 0.336 1.386 1.218 1.386 0.336 0 0.672-0.084 0.672-0.084v3.865C150.573 194.66 150.111 194.87 148.851 194.87zM144.44 184.83l-5.545 0.421c-1.597 0.126-3.151 1.092-3.151 2.856 0 1.68 1.471 2.73 3.109 2.73 3.276 0 5.587-1.765 5.587-4.999V184.83z"/>
  <path fill="#FFFFFF" d="M84 9.994c-37.114 0-67.313 30.199-67.313 67.312 0 37.115 30.199 67.314 67.313 67.314 37.122 0 67.313-30.199 67.313-67.314C151.313 40.193 121.122 9.994 84 9.994zM84 135.266c-31.953 0-57.953-25.998-57.953-57.959 0-31.96 26-57.957 57.953-57.957 31.961 0 57.966 25.997 57.966 57.957C141.966 109.268 115.961 135.266 84 135.266z"/>
  <path fill="#FFFFFF" d="M129.16 53.885h-15.679v7.272h3.208l-20.194 43.299 -8.072-17.109 12.34-26.137h4.488v-7.325H62.754v7.325h4.491l12.337 26.137 -8.072 17.109L51.316 61.157h3.207v-7.272H38.848v7.272h3.646l25.408 54.493h7.157L84 96.707l8.945 18.943h7.16l25.408-54.493h3.646V53.885zM76.08 61.21h15.848L84 77.979 76.08 61.21z"/>
  <polygon fill="#FFFFFF" points="96.679,235.122 90.347,229.847 83.983,235.122 77.65,229.847 71.288,235.122 63.997,229.049   65.917,226.744 71.292,231.222 77.655,225.946 83.988,231.222 90.351,225.946 96.683,231.222 102.086,226.742 104,229.051 "/>
</svg>
