<?xml version="1.0" encoding="UTF-8" standalone="no"?>
<svg width="32px" height="32px" viewBox="0 0 32 32" version="1.1" xmlns="http://www.w3.org/2000/svg" xmlns:xlink="http://www.w3.org/1999/xlink" xmlns:sketch="http://www.bohemiancoding.com/sketch/ns">
    <title>O + W</title>
    <description>Created with Sketch (http://www.bohemiancoding.com/sketch)</description>
    <defs></defs>
    <g id="Page-1" stroke="none" stroke-width="1" fill="none" fill-rule="evenodd" sketch:type="MSPage">
        <g id="O-+-W" sketch:type="MSLayerGroup" fill="#FFFFFF">
            <path d="M15.6218182,-0.00193939394 C7.06618182,-0.00193939394 0.106666667,6.95854545 0.106666667,15.5132121 C0.106666667,24.0678788 7.06618182,31.0283636 15.6218182,31.0283636 C24.1774545,31.0283636 31.1369697,24.0678788 31.1369697,15.5132121 C31.1369697,6.95854545 24.1774545,-0.00193939394 15.6218182,-0.00193939394 L15.6218182,-0.00193939394 Z M15.6218182,28.8727273 C8.256,28.8727273 2.26327273,22.8809697 2.26327273,15.5132121 C2.26327273,8.14739394 8.256,2.15563636 15.6218182,2.15563636 C22.9886061,2.15563636 28.982303,8.14739394 28.982303,15.5132121 C28.982303,22.8809697 22.9886061,28.8727273 15.6218182,28.8727273 L15.6218182,28.8727273 Z" id="O" sketch:type="MSShapeGroup"></path>
            <path d="M26.0305455,10.1158788 L22.4174545,10.1158788 L22.4174545,11.7915152 L23.1563636,11.7915152 L18.5018182,21.7706667 L16.6419394,17.8278788 L19.4850909,11.8031515 L20.5197576,11.8031515 L20.5197576,10.1158788 L10.7248485,10.1158788 L10.7248485,11.8031515 L11.7595152,11.8031515 L14.6036364,17.8278788 L12.7427879,21.7706667 L8.08824242,11.7915152 L8.82812121,11.7915152 L8.82812121,10.1158788 L5.21406061,10.1158788 L5.21406061,11.7915152 L6.05478788,11.7915152 L11.9117576,24.352 L13.5612121,24.352 L15.6218182,19.9844848 L17.6843636,24.352 L19.3338182,24.352 L25.1898182,11.7915152 L26.0305455,11.7915152 L26.0305455,10.1158788 L26.0305455,10.1158788 Z M13.7958788,11.8031515 L17.449697,11.8031515 L15.6218182,15.6683636 L13.7958788,11.8031515 L13.7958788,11.8031515 Z" id="W" sketch:type="MSShapeGroup"></path>
        </g>
    </g>
</svg>