<?xml version="1.0" encoding="utf-8"?>
<!-- Generator: Adobe Illustrator 16.0.0, SVG Export Plug-In . SVG Version: 6.00 Build 0)  -->
<!DOCTYPE svg PUBLIC "-//W3C//DTD SVG 1.1//EN" "http://www.w3.org/Graphics/SVG/1.1/DTD/svg11.dtd">
<svg version="1.1" id="Layer_1" xmlns="http://www.w3.org/2000/svg" xmlns:xlink="http://www.w3.org/1999/xlink" x="0px" y="0px"
	 width="24px" height="24px" viewBox="0 0 24 24" enable-background="new 0 0 24 24" xml:space="preserve">
<path fill="#2B2F3A" d="M12,2C6.477,2,2,6.478,2,12s4.477,10,10,10c5.522,0,10-4.478,10-10S17.522,2,12,2L12,2z"/>
<path fill="#EAEAEA" d="M12,3.5c4.688,0,8.5,3.813,8.5,8.5c0,4.688-3.812,8.5-8.5,8.5c-4.687,0-8.5-3.812-8.5-8.5
	C3.5,7.313,7.313,3.5,12,3.5"/>
<g>
	<path fill="#2B2F3A" d="M10.484,15.096c-0.582,0.582-1.378,0.862-2.197,0.862c-0.819,0-1.615-0.28-2.197-0.862
		c-0.829-0.828-0.969-1.842-0.969-3.09c0-1.249,0.14-2.272,0.969-3.102c0.582-0.582,1.378-0.862,2.197-0.862
		c0.818,0,1.615,0.28,2.197,0.862c0.829,0.829,0.969,1.853,0.969,3.102C11.454,13.254,11.313,14.268,10.484,15.096z M9.494,9.808
		C9.192,9.485,8.729,9.302,8.288,9.302S7.383,9.485,7.082,9.808c-0.528,0.549-0.549,1.497-0.549,2.197
		c0,0.7,0.021,1.636,0.549,2.187c0.301,0.322,0.765,0.505,1.206,0.505s0.904-0.183,1.206-0.505c0.528-0.551,0.549-1.487,0.549-2.187
		C10.043,11.305,10.021,10.357,9.494,9.808z"/>
	<path fill="#2B2F3A" d="M16.809,15.818l-1.271-2.887h-1.692v2.887h-1.398V8.182h3.219c1.821,0,2.65,1.142,2.65,2.369
		c0,1.023-0.562,1.831-1.399,2.143l1.399,3.124H16.809z M15.666,9.399h-1.83v2.283h1.852c0.787,0,1.24-0.409,1.24-1.131
		C16.928,9.938,16.452,9.399,15.666,9.399z"/>
</g>
</svg>
