<?xml version="1.0" encoding="utf-8"?>
<!-- Generator: Adobe Illustrator 16.0.0, SVG Export Plug-In . SVG Version: 6.00 Build 0)  -->
<!DOCTYPE svg PUBLIC "-//W3C//DTD SVG 1.1//EN" "http://www.w3.org/Graphics/SVG/1.1/DTD/svg11.dtd">
<svg version="1.1" id="Layer_1" xmlns="http://www.w3.org/2000/svg" xmlns:xlink="http://www.w3.org/1999/xlink" x="0px" y="0px"
	 width="32px" height="32px" viewBox="0 0 32 32" enable-background="new 0 0 32 32" xml:space="preserve">
<g>
	<path fill="#2A4898" d="M16,32C7.178,32,0,24.823,0,16.001C0,7.178,7.178,0,16,0s16,7.178,16,16.001C32,24.823,24.822,32,16,32z
		 M16,1.347c-8.079,0-14.653,6.574-14.653,14.654c0,8.079,6.574,14.652,14.653,14.652s14.653-6.573,14.653-14.652
		C30.653,7.921,24.079,1.347,16,1.347z"/>
	<path fill="#2A4898" d="M20.134,22.973c-0.153,0-0.323-0.047-0.5-0.14l-2.727-1.432c-0.47-0.246-1.345-0.246-1.815,0l-2.726,1.432
		c-0.396,0.207-0.756,0.179-0.96-0.064c-0.101-0.117-0.206-0.343-0.139-0.735l0.52-3.035c0.093-0.548-0.163-1.339-0.562-1.727
		l-2.207-2.15c-0.366-0.357-0.34-0.661-0.293-0.809c0.049-0.147,0.206-0.409,0.714-0.483l3.049-0.44
		c0.55-0.082,1.223-0.571,1.47-1.068l1.362-2.764c0.227-0.46,0.523-0.528,0.68-0.528s0.453,0.068,0.68,0.528l1.362,2.764
		c0.246,0.497,0.92,0.986,1.47,1.068l3.049,0.44c0.508,0.074,0.665,0.336,0.714,0.483c0.048,0.147,0.073,0.451-0.293,0.809
		l-2.207,2.15c-0.398,0.388-0.654,1.179-0.562,1.727l0.522,3.035c0.065,0.393-0.04,0.618-0.141,0.735
		C20.482,22.903,20.323,22.973,20.134,22.973z"/>
</g>
</svg>
