<?xml version="1.0" encoding="utf-8"?>
<!-- Generator: Adobe Illustrator 16.0.0, SVG Export Plug-In . SVG Version: 6.00 Build 0)  -->
<!DOCTYPE svg PUBLIC "-//W3C//DTD SVG 1.1//EN" "http://www.w3.org/Graphics/SVG/1.1/DTD/svg11.dtd">
<svg version="1.1" id="Layer_1" xmlns="http://www.w3.org/2000/svg" xmlns:xlink="http://www.w3.org/1999/xlink" x="0px" y="0px"
	 width="32px" height="32px" viewBox="0 0 32 32" enable-background="new 0 0 32 32" xml:space="preserve">
<g>
	<path fill="#2A4898" d="M16,32C7.178,32,0,24.823,0,16.001C0,7.178,7.178,0,16,0s16,7.178,16,16.001C32,24.823,24.822,32,16,32z
		 M16,1.347c-8.079,0-14.653,6.574-14.653,14.654c0,8.079,6.574,14.652,14.653,14.652s14.653-6.573,14.653-14.652
		C30.653,7.921,24.079,1.347,16,1.347z"/>
	<path fill="#2A4898" d="M12.167,8.329v10.556c-0.426-0.192-0.898-0.293-1.388-0.293c-1.639,0-2.974,1.138-2.974,2.539
		c0,1.4,1.335,2.54,2.974,2.54c1.641,0,2.974-1.14,2.974-2.54c0-0.02,0-0.038-0.003-0.062v-9.226h8.86v7.043
		c-0.425-0.193-0.9-0.295-1.393-0.295c-1.638,0-2.971,1.138-2.971,2.539c0,1.4,1.333,2.54,2.971,2.54c1.642,0,2.976-1.14,2.976-2.54
		V8.329H12.167z"/>
</g>
</svg>
