<?xml version="1.0" encoding="utf-8"?>
<!-- Generator: Adobe Illustrator 16.0.0, SVG Export Plug-In . SVG Version: 6.00 Build 0)  -->
<!DOCTYPE svg PUBLIC "-//W3C//DTD SVG 1.1//EN" "http://www.w3.org/Graphics/SVG/1.1/DTD/svg11.dtd">
<svg version="1.1" id="Layer_1" xmlns="http://www.w3.org/2000/svg" xmlns:xlink="http://www.w3.org/1999/xlink" x="0px" y="0px"
	 width="32px" height="32px" viewBox="0 0 32 32" enable-background="new 0 0 32 32" xml:space="preserve">
<g>
	<path fill="#2A4898" d="M16,32C7.178,32,0,24.823,0,16.001C0,7.178,7.178,0,16,0s16,7.178,16,16.001C32,24.823,24.822,32,16,32z
		 M16,1.347c-8.079,0-14.653,6.574-14.653,14.654c0,8.079,6.574,14.652,14.653,14.652s14.653-6.573,14.653-14.652
		C30.653,7.921,24.079,1.347,16,1.347z"/>
	<g>
		<g>
			<path fill="#2A4898" d="M8.059,10.498v11.018h15.883V10.498H8.059z M22.953,20.574H9.047v-9.136h13.906V20.574z"/>
			<rect x="9.565" y="11.958" fill="#2A4898" width="12.871" height="8.097"/>
		</g>
		<path fill="#2A4898" d="M13.588,22.06v0.644c0,0,0.955-0.146,1.535,0.708c0,0-3.913-0.55-3.913,1.346H16h4.79
			c0-1.896-3.915-1.346-3.915-1.346c0.582-0.854,1.539-0.708,1.539-0.708V22.06H13.588z"/>
		<g>
			<g>
				<path fill="#2A4898" d="M16,8.101c-0.667,0-1.295,0.258-1.765,0.73l-0.148,0.148L13.48,8.371l0.147-0.148
					c0.633-0.632,1.476-0.98,2.372-0.98s1.739,0.349,2.372,0.98l0.149,0.148l-0.608,0.608l-0.147-0.148
					C17.295,8.358,16.667,8.101,16,8.101z"/>
			</g>
			<g>
				<path fill="#2A4898" d="M16,8.536c0.587,0,1.139,0.228,1.553,0.641l0.098,0.1l-0.498,0.492L17.055,9.67
					C16.747,9.361,16.437,9.247,16,9.247s-0.745,0.114-1.055,0.423l-0.098,0.099L14.35,9.276l0.098-0.1
					C14.861,8.764,15.413,8.536,16,8.536z"/>
			</g>
		</g>
	</g>
</g>
</svg>
