<?xml version="1.0" encoding="utf-8"?>
<!-- Generator: Adobe Illustrator 16.0.0, SVG Export Plug-In . SVG Version: 6.00 Build 0)  -->
<!DOCTYPE svg PUBLIC "-//W3C//DTD SVG 1.1//EN" "http://www.w3.org/Graphics/SVG/1.1/DTD/svg11.dtd">
<svg version="1.1" id="Layer_1" xmlns="http://www.w3.org/2000/svg" xmlns:xlink="http://www.w3.org/1999/xlink" x="0px" y="0px"
	 width="32px" height="32px" viewBox="0 0 32 32" enable-background="new 0 0 32 32" xml:space="preserve">
<g>
	<path fill="#2A4898" d="M16,32C7.178,32,0,24.823,0,16.001C0,7.178,7.178,0,16,0s16,7.178,16,16.001C32,24.823,24.822,32,16,32z
		 M16,1.347c-8.079,0-14.653,6.574-14.653,14.654c0,8.079,6.574,14.652,14.653,14.652s14.653-6.573,14.653-14.652
		C30.653,7.921,24.079,1.347,16,1.347z"/>
	<g>
		<path fill="#2A4898" d="M13.598,9.798V8.865c0-0.556,0.451-1.007,1.007-1.007h2.791c0.556,0,1.007,0.451,1.007,1.007v0.933h0.562
			V8.865c0-0.864-0.705-1.568-1.569-1.568h-2.791c-0.864,0-1.57,0.704-1.57,1.568v0.933H13.598z"/>
		<g>
			<polygon fill="#2A4898" points="15.152,16.983 14.966,16.965 14.966,17.454 17.034,17.454 17.034,16.965 16,17.069 			"/>
			<path fill="#2A4898" d="M21.898,10.251H10.102c-1.313,0-2.384,1.069-2.384,2.383v7.523c0,1.315,1.07,2.384,2.384,2.384h11.797
				c1.313,0,2.384-1.068,2.384-2.384v-7.523C24.282,11.32,23.212,10.251,21.898,10.251z M17.596,16.906v1.109h-3.191v-1.109
				l-6.014-0.614l0.058-0.56l5.956,0.61L16,16.505l7.551-0.772l0.059,0.56L17.596,16.906z"/>
		</g>
	</g>
</g>
</svg>
