<?xml version="1.0" encoding="utf-8"?>
<!-- Generator: Adobe Illustrator 16.0.0, SVG Export Plug-In . SVG Version: 6.00 Build 0)  -->
<!DOCTYPE svg PUBLIC "-//W3C//DTD SVG 1.1//EN" "http://www.w3.org/Graphics/SVG/1.1/DTD/svg11.dtd">
<svg version="1.1" id="Layer_1" xmlns="http://www.w3.org/2000/svg" xmlns:xlink="http://www.w3.org/1999/xlink" x="0px" y="0px"
	 width="32px" height="32px" viewBox="0 0 32 32" enable-background="new 0 0 32 32" xml:space="preserve">
<g>
	<path fill="#2A4898" d="M16,32C7.178,32,0,24.823,0,16.001C0,7.178,7.178,0,16,0s16,7.178,16,16.001C32,24.823,24.822,32,16,32z
		 M16,1.347c-8.079,0-14.653,6.574-14.653,14.654c0,8.079,6.574,14.652,14.653,14.652s14.653-6.573,14.653-14.652
		C30.653,7.921,24.079,1.347,16,1.347z"/>
	<path fill="#2A4898" d="M25.111,12.686l-0.666-0.45c-0.652,0.651-0.647,1.274-0.596,1.68l-7.134,9.646l-8.449-3.808
		c-0.147-0.124-0.424-0.426-0.434-0.727c0-0.069-0.006-0.283,0.328-0.571l0.046-0.045l8.663,3.646l7.942-10.739L15.194,7.27
		L7.252,18.011l-0.057,0.055c-0.322,0.391-0.312,0.725-0.303,0.993c0.025,0.836,0.756,1.411,0.837,1.477l9.291,4.195l7.705-10.416
		l0.13-0.182l-0.052-0.214C24.795,13.887,24.626,13.171,25.111,12.686z M15.642,10.928l4.734,1.891l-0.622,0.959l-4.734-1.889
		L15.642,10.928z"/>
</g>
</svg>
